<?xml version="1.0" standalone="no"?>
<!DOCTYPE svg PUBLIC "-//W3C//DTD SVG 20010904//EN"
 "http://www.w3.org/TR/2001/REC-SVG-20010904/DTD/svg10.dtd">
<svg version="1.0" xmlns="http://www.w3.org/2000/svg"
 width="960.000000pt" height="960.000000pt" viewBox="0 0 960.000000 960.000000"
 preserveAspectRatio="xMidYMid meet">
<metadata>
Created by potrace 1.14, written by Peter Selinger 2001-2017
</metadata>
<g transform="translate(0.000000,960.000000) scale(0.100000,-0.100000)"
fill="#000000" stroke="none">
<path d="M0 4800 l0 -4800 4800 0 4800 0 0 4800 0 4800 -4800 0 -4800 0 0
-4800z m8140 3973 l131 -403 432 -2 432 -3 -330 -239 c-181 -131 -338 -247
-348 -256 -18 -17 -14 -32 112 -420 72 -222 129 -406 126 -408 -2 -2 -159 109
-349 247 l-345 252 -346 -252 c-191 -138 -348 -249 -350 -247 -2 2 54 184 126
403 71 220 127 405 125 411 -2 6 -159 123 -348 260 l-343 249 434 5 434 5 126
390 c138 423 142 435 147 420 1 -5 62 -191 134 -412z m-1167 -3353 l727 -5
-571 -415 c-315 -228 -578 -420 -587 -426 -13 -9 16 -105 207 -694 122 -375
220 -684 218 -686 -2 -2 -264 185 -582 416 -318 232 -584 419 -591 416 -6 -2
-269 -192 -584 -420 -315 -229 -575 -415 -577 -413 -1 2 96 309 217 682 121
372 220 680 220 684 0 4 -261 196 -579 426 -319 231 -580 423 -580 427 -1 5
324 9 721 10 l722 3 216 666 c119 366 220 674 224 685 5 13 75 -188 230 -666
l223 -685 726 -5z m-3600 -2600 l727 -5 -571 -415 c-315 -228 -578 -420 -587
-426 -13 -9 16 -105 207 -694 122 -375 220 -684 218 -686 -2 -2 -264 185 -582
416 -318 232 -584 419 -591 416 -6 -2 -269 -192 -584 -420 -315 -229 -575
-415 -577 -413 -1 2 96 309 217 682 121 372 220 680 220 684 0 4 -261 196
-579 426 -319 231 -580 423 -580 427 -1 5 324 9 721 10 l722 3 216 666 c119
366 220 674 224 685 5 13 75 -188 230 -666 l223 -685 726 -5z"/>
</g>
</svg>
